<?xml version="1.0" encoding="UTF-8"?> <svg xmlns="http://www.w3.org/2000/svg" width="187" height="45" fill="none"><path d="M150.166 35.211a1.108 1.108 0 0 0-.813-.77 6.875 6.875 0 0 1-.682-.215c-.147-.055-.295-.11-.421-.151a2.2 2.2 0 0 0-.307-.064 1.307 1.307 0 0 0-.986.253c-.45.314-.799.753-1.002 1.263a2.278 2.278 0 0 0 .097 2c.136.252.288.496.455.729v.025c.086.135.194.255.32.354.237.122.484.226.737.311l.265.097.131-.03c.248-.063.505-.126.749-.21a3.65 3.65 0 0 0 .749-.37l.11-.068c.168-.091.32-.21.45-.35l.076-.143a1.39 1.39 0 0 0 .295-.917 1.07 1.07 0 0 1 .029-.468v-.034c0-.084-.029-.172-.042-.256a4.608 4.608 0 0 0-.21-.986z" fill="#FFBC23"></path><path d="M82.448 2.664a77.246 77.246 0 0 1-1.183 8.03 83.127 83.127 0 0 1-1.95 7.747h-5.22L71.82 8.003l-2.277 10.438h-5.15a81.358 81.358 0 0 1-1.941-7.747 80.779 80.779 0 0 1-1.187-8.03h4c.1.994.223 1.992.358 2.994a77.45 77.45 0 0 0 .467 2.985c.172.99.362 1.962.564 2.947.202.986.421 1.903.648 2.821L69.83 2.685h4.185l2.526 11.747c.23-.909.447-1.848.649-2.816a99.9 99.9 0 0 0 .568-2.948 74.082 74.082 0 0 0 .821-6l3.87-.004zM93.917 17.62a8.88 8.88 0 0 1-2.076.8 9.777 9.777 0 0 1-2.378.277 8.128 8.128 0 0 1-2.62-.395 5.3 5.3 0 0 1-1.953-1.125 4.88 4.88 0 0 1-1.221-1.835 6.735 6.735 0 0 1-.421-2.464 7.328 7.328 0 0 1 .4-2.526 5.505 5.505 0 0 1 1.124-1.907 4.834 4.834 0 0 1 1.756-1.221 5.895 5.895 0 0 1 2.29-.421 5.618 5.618 0 0 1 2.072.362c.597.23 1.131.596 1.562 1.07.446.51.78 1.108.981 1.755.238.78.352 1.593.337 2.408v.61c0 .19-.03.422-.059.624h-6.737c.059.33.17.648.329.943.145.269.35.5.597.678.268.192.567.335.885.421.383.098.778.145 1.174.14a6.03 6.03 0 0 0 3.264-.944l.694 2.75zm-3.654-6.287a2.898 2.898 0 0 0-.123-.813 1.684 1.684 0 0 0-.311-.597 1.263 1.263 0 0 0-.476-.37 1.511 1.511 0 0 0-.631-.127 1.574 1.574 0 0 0-.62.122 1.39 1.39 0 0 0-.496.362 2.23 2.23 0 0 0-.38.602 3.422 3.422 0 0 0-.24.821h3.277zm9.3 3.155a1.13 1.13 0 0 0 .228.774.842.842 0 0 0 .648.249c.151.002.301-.016.446-.055.129-.036.252-.089.367-.156l.387 2.947a6.688 6.688 0 0 1-2.375.455 4.4 4.4 0 0 1-1.494-.236 2.671 2.671 0 0 1-1.087-.703 3.073 3.073 0 0 1-.682-1.191 5.599 5.599 0 0 1-.227-1.684V1.89l3.79-.392v12.99zm12.468 3.174a6.392 6.392 0 0 1-1.684.766 6.972 6.972 0 0 1-1.962.27 5.994 5.994 0 0 1-2.257-.422 4.988 4.988 0 0 1-1.752-1.157 5.303 5.303 0 0 1-1.141-1.84 6.942 6.942 0 0 1-.421-2.447 6.885 6.885 0 0 1 .446-2.56 5.6 5.6 0 0 1 1.209-1.903 5.136 5.136 0 0 1 1.814-1.183 6.237 6.237 0 0 1 2.262-.421 5.866 5.866 0 0 1 1.684.231c.49.148.957.362 1.389.636l-.8 2.948a3.071 3.071 0 0 0-1.852-.632 2.409 2.409 0 0 0-.931.173c-.282.113-.535.29-.737.518a2.463 2.463 0 0 0-.488.842 3.55 3.55 0 0 0-.177 1.17c-.006.398.05.794.164 1.175.1.322.265.62.484.876.209.235.47.416.762.53.322.127.666.188 1.011.181.403.008.803-.062 1.179-.206.37-.127.716-.315 1.023-.556l.775 3.01zm7.373-10.867c.808 0 1.611.142 2.37.421a5.83 5.83 0 0 1 1.933 1.162 5.47 5.47 0 0 1 1.309 1.836c.331.77.496 1.6.484 2.438a6.395 6.395 0 0 1-.48 2.551 5.532 5.532 0 0 1-1.313 1.908 5.675 5.675 0 0 1-1.996 1.191 7.411 7.411 0 0 1-2.505.421 6.882 6.882 0 0 1-2.396-.42 5.82 5.82 0 0 1-1.945-1.159 5.396 5.396 0 0 1-1.314-1.84 6.016 6.016 0 0 1-.476-2.433 6.543 6.543 0 0 1 .476-2.56c.3-.723.754-1.373 1.33-1.903a5.824 5.824 0 0 1 2-1.188 7.499 7.499 0 0 1 2.523-.425zm-.169 3.175a2.22 2.22 0 0 0-1.629.715 2.537 2.537 0 0 0-.51.864c-.132.37-.196.76-.189 1.153-.009.417.056.832.193 1.226.113.324.291.622.522.875.213.232.475.414.767.53.298.12.617.18.939.178a2.21 2.21 0 0 0 1.642-.716c.222-.245.393-.531.505-.842.127-.37.188-.759.181-1.15a3.742 3.742 0 0 0-.181-1.233 2.483 2.483 0 0 0-.514-.876 2.098 2.098 0 0 0-.77-.535 2.557 2.557 0 0 0-.956-.19zm8.417-2.897h2.973l.177.964a4.197 4.197 0 0 1 1.33-.897 4.325 4.325 0 0 1 1.718-.324c.322 0 .644.029.96.088a4.088 4.088 0 0 1 1.655.729c.246.182.467.396.657.636.205-.227.432-.433.677-.615.249-.184.519-.337.805-.455.303-.125.617-.219.939-.282a5.34 5.34 0 0 1 1.065-.1 4.765 4.765 0 0 1 1.684.298 3.9 3.9 0 0 1 1.377.901c.411.432.727.946.926 1.507.237.69.351 1.415.337 2.144v6.774h-3.789V12.08c.007-.35-.038-.7-.135-1.036a2.003 2.003 0 0 0-.35-.677 1.209 1.209 0 0 0-.446-.346 1.517 1.517 0 0 0-.981-.046 2.085 2.085 0 0 0-.754.43c-.118.1-.231.218-.349.34.028.155.047.311.055.468v7.227h-3.79v-6.36a3.622 3.622 0 0 0-.126-1.036 1.936 1.936 0 0 0-.35-.677 1.254 1.254 0 0 0-.484-.346 1.55 1.55 0 0 0-1.309.088 2.756 2.756 0 0 0-.699.548v7.785h-3.79l.017-11.368zm29.937 10.547a8.823 8.823 0 0 1-2.076.8 9.739 9.739 0 0 1-2.375.277 8.133 8.133 0 0 1-2.619-.395 5.264 5.264 0 0 1-1.953-1.125 4.819 4.819 0 0 1-1.221-1.835 6.72 6.72 0 0 1-.421-2.464 7.405 7.405 0 0 1 .395-2.526 5.582 5.582 0 0 1 1.129-1.907 4.82 4.82 0 0 1 1.756-1.221 5.889 5.889 0 0 1 2.29-.421 5.63 5.63 0 0 1 2.072.362 4.11 4.11 0 0 1 1.558 1.07c.448.509.784 1.107.985 1.755.236.78.35 1.593.337 2.408v.61c0 .19-.03.422-.059.624h-6.737c.059.33.169.648.328.943a2 2 0 0 0 .602.69c.268.193.567.335.885.422a4.46 4.46 0 0 0 1.174.139 6.026 6.026 0 0 0 3.263-.943l.687 2.736zm-3.651-6.287a3.063 3.063 0 0 0-.122-.813 1.757 1.757 0 0 0-.311-.597 1.313 1.313 0 0 0-.476-.37 1.517 1.517 0 0 0-.636-.127c-.211-.001-.42.04-.615.122a1.444 1.444 0 0 0-.501.362 2.33 2.33 0 0 0-.375.602 3.305 3.305 0 0 0-.24.821h3.276zm10.055-1.343V7.072h1.432V4.546l3.789-.366v2.892h2.754v2.948h-2.754v4.11c-.033.378.083.754.324 1.048a1.27 1.27 0 0 0 .931.328c.258 0 .514-.04.758-.122.258-.093.5-.223.72-.388l.442 3.02c-.427.24-.886.42-1.364.53a6.394 6.394 0 0 1-1.533.181c-1.318 0-2.32-.35-3.015-1.053-.694-.703-1.035-1.768-1.035-3.212V9.99h-1.449zm15.945-3.195c.809 0 1.612.142 2.371.421a5.84 5.84 0 0 1 1.932 1.162 5.473 5.473 0 0 1 1.31 1.836c.33.77.495 1.6.484 2.438a6.412 6.412 0 0 1-.48 2.551 5.521 5.521 0 0 1-1.314 1.908 5.662 5.662 0 0 1-1.995 1.191 7.417 7.417 0 0 1-2.506.421 6.88 6.88 0 0 1-2.395-.42 5.835 5.835 0 0 1-1.946-1.159 5.393 5.393 0 0 1-1.313-1.84 5.983 5.983 0 0 1-.476-2.433 6.525 6.525 0 0 1 .476-2.56 5.472 5.472 0 0 1 1.326-1.903 5.894 5.894 0 0 1 2.004-1.188 7.489 7.489 0 0 1 2.522-.425zm-.168 3.175a2.204 2.204 0 0 0-1.63.715 2.53 2.53 0 0 0-.509.864 3.28 3.28 0 0 0-.19 1.153c-.009.417.057.832.194 1.226.113.324.29.622.522.875.213.232.475.414.766.53.299.12.618.18.939.178a2.234 2.234 0 0 0 1.643-.716c.221-.245.393-.531.505-.842a3.38 3.38 0 0 0 .181-1.15 3.742 3.742 0 0 0-.181-1.233 2.513 2.513 0 0 0-.514-.876 2.106 2.106 0 0 0-.77-.535 2.557 2.557 0 0 0-.935-.19h-.021zM72.566 27.06a4.923 4.923 0 0 0-1.457-.842 4.745 4.745 0 0 0-1.638-.29 3.84 3.84 0 0 0-1.528.303 3.47 3.47 0 0 0-1.226.905c-.374.44-.66.947-.842 1.495a6.448 6.448 0 0 0-.303 2.071c-.01.68.084 1.357.278 2.009.163.553.435 1.069.8 1.516.34.413.773.74 1.263.955a4.184 4.184 0 0 0 1.684.325 5.46 5.46 0 0 0 1.007-.089 4.706 4.706 0 0 0 1.743-.699c.282-.185.55-.389.804-.61l.876 3.208a8.311 8.311 0 0 1-4.981 1.579 8.138 8.138 0 0 1-3.087-.564 6.69 6.69 0 0 1-2.379-1.596 7.158 7.158 0 0 1-1.524-2.526 9.684 9.684 0 0 1-.539-3.344c-.007-.823.084-1.644.27-2.446.169-.71.426-1.396.766-2.042a7.16 7.16 0 0 1 1.23-1.62 6.877 6.877 0 0 1 1.54-1.188 6.987 6.987 0 0 1 1.828-.724 8.502 8.502 0 0 1 2.042-.236c.802-.007 1.6.102 2.37.324a5.78 5.78 0 0 1 1.916.981l-.913 3.145zm8.951-.055c.809 0 1.611.142 2.37.421.714.258 1.37.653 1.933 1.162a5.474 5.474 0 0 1 1.31 1.836c.33.77.495 1.6.484 2.438a6.412 6.412 0 0 1-.48 2.551 5.531 5.531 0 0 1-1.314 1.908 5.665 5.665 0 0 1-1.996 1.191 7.419 7.419 0 0 1-2.526.422 6.876 6.876 0 0 1-2.392-.422 5.828 5.828 0 0 1-1.945-1.157 5.397 5.397 0 0 1-1.313-1.84 6.004 6.004 0 0 1-.476-2.434 6.544 6.544 0 0 1 .476-2.56 5.473 5.473 0 0 1 1.326-1.903 5.894 5.894 0 0 1 2.004-1.188 7.49 7.49 0 0 1 2.54-.425zm-.168 3.175a2.202 2.202 0 0 0-1.63.716c-.223.244-.396.53-.51.842-.131.37-.195.76-.189 1.153a3.5 3.5 0 0 0 .194 1.226c.113.324.29.622.522.875.213.232.474.414.766.531.299.12.618.18.94.177a2.235 2.235 0 0 0 1.641-.716c.222-.245.394-.531.506-.842.126-.37.188-.759.18-1.15a3.734 3.734 0 0 0-.18-1.233 2.495 2.495 0 0 0-.514-.876 2.106 2.106 0 0 0-.77-.535 2.555 2.555 0 0 0-.956-.168zm19.141 8.472h-2.948l-.177-.99a4.606 4.606 0 0 1-3.229 1.263 5.082 5.082 0 0 1-1.768-.303 3.827 3.827 0 0 1-1.42-.913 4.17 4.17 0 0 1-.955-1.52 5.976 5.976 0 0 1-.35-2.144v-6.762h3.79V33.6c-.009.353.038.706.139 1.044.076.252.205.485.379.682.146.168.333.294.543.367a1.966 1.966 0 0 0 1.486-.089c.292-.141.554-.335.775-.572v-7.748h3.789l-.054 11.369zm2.615-11.369h2.972l.177.977a4.494 4.494 0 0 1 1.411-.905 4.693 4.693 0 0 1 1.806-.329 5.076 5.076 0 0 1 1.747.299 3.955 3.955 0 0 1 1.423.901c.426.427.754.941.96 1.507.246.688.364 1.414.35 2.144v6.774h-3.79V32.29c.008-.35-.037-.7-.134-1.036a1.848 1.848 0 0 0-.379-.677 1.3 1.3 0 0 0-.543-.367 1.85 1.85 0 0 0-.624-.105c-.291 0-.579.066-.842.194a2.757 2.757 0 0 0-.766.547v7.806h-3.79l.022-11.368zm12.265 2.918v-2.918h1.431v-2.526l3.79-.366v2.892h2.753v2.948h-2.753v4.11a1.45 1.45 0 0 0 .324 1.047 1.262 1.262 0 0 0 .93.329c.258 0 .514-.04.758-.122.258-.093.501-.223.72-.387l.442 3.018a5.07 5.07 0 0 1-1.364.53 6.38 6.38 0 0 1-1.532.182c-1.318 0-2.32-.35-3.015-1.053-.695-.703-1.036-1.768-1.036-3.212V30.2h-1.448zm10.303-2.918h2.972l.236 1.264c.177-.225.365-.44.564-.645.183-.184.385-.348.603-.488a2.538 2.538 0 0 1 1.402-.4c.199-.002.398.016.593.055.178.035.35.092.514.168l-.274 3.31a2.52 2.52 0 0 0-.964-.215 1.941 1.941 0 0 0-.493.067 2.196 2.196 0 0 0-.471.202 2.661 2.661 0 0 0-.459.341 3.663 3.663 0 0 0-.446.514v7.196h-3.79l.013-11.369zm19.869 0a63.381 63.381 0 0 1-.627 2.834c-.24.985-.509 1.97-.804 2.947a53.448 53.448 0 0 1-.956 2.867 30.398 30.398 0 0 1-1.078 2.598 14.557 14.557 0 0 1-1.389 2.43 9.432 9.432 0 0 1-1.613 1.772 6.43 6.43 0 0 1-1.819 1.083 5.551 5.551 0 0 1-1.996.366 5.15 5.15 0 0 1-1.263-.16 3.996 3.996 0 0 1-1.069-.421l.421-3.095a2.7 2.7 0 0 0 .842.421c.29.083.591.126.893.127a2.504 2.504 0 0 0 1.511-.502c.23-.18.431-.395.598-.635a4.26 4.26 0 0 0 .493-.796 97.229 97.229 0 0 1-1.381-3.369 66.182 66.182 0 0 1-1.099-3.019c-.32-.96-.611-1.89-.842-2.787-.232-.897-.476-1.794-.666-2.686h3.882c.122.636.261 1.263.421 1.937.16.673.341 1.31.535 1.957.194.649.396 1.306.615 1.963.219.657.45 1.3.703 1.936.227-.694.421-1.38.632-2.05.21-.67.37-1.326.53-1.975.16-.648.303-1.284.421-1.911.118-.628.253-1.263.362-1.857l3.743.025z" fill="#321A3D"></path><path d="M33.589 4.614c-.897-2.232-2.181-2.762-3.074-2.947a22.177 22.177 0 0 1-2.573-.813C27.387.652 26.831.433 26.258.29a8.262 8.262 0 0 0-1.153-.236 4.952 4.952 0 0 0-3.727.956 10.48 10.48 0 0 0-3.79 4.8c-1.035 2.808-.917 5.28.363 7.579a26.111 26.111 0 0 0 1.722 2.762l.063.088a5.63 5.63 0 0 0 1.196 1.343 21.2 21.2 0 0 0 2.792 1.171l1.002.37.492-.122c.943-.231 1.916-.471 2.838-.795a14.04 14.04 0 0 0 2.85-1.449l.422-.26c.623-.392 1.478-.927 1.684-1.323l.299-.522c.817-1.453 1.305-2.396 1.107-3.461a3.987 3.987 0 0 1 .11-1.764c0-.047.025-.093.033-.135l-.143-.956a16.844 16.844 0 0 0-.83-3.722z" fill="#FFBC23"></path><path d="M55.437 29.128l.021-.097c.093-.446.164-.914.22-1.263l.147-1.322c.025-.207.058-.421.096-.628.021-.1.038-.206.047-.26a2.53 2.53 0 0 0 0-.64 8.094 8.094 0 0 1-.11-1.394v-.468a10.79 10.79 0 0 0-.1-1.208 1.49 1.49 0 0 1 0-.484c.004-.3-.019-.6-.068-.897a14.461 14.461 0 0 0-.484-1.794 18.62 18.62 0 0 1-.215-.69 6.048 6.048 0 0 0-.489-1.306 14.96 14.96 0 0 1-.64-1.377l-.172-.42a40.807 40.807 0 0 1-.573-1.403L53 13.174a27.461 27.461 0 0 0-.897-1.756c-.126-.219-.277-.42-.42-.631a9.253 9.253 0 0 1-.59-.914c-.16-.312-.35-.615-.547-.935-.123-.198-.24-.391-.35-.577l-.421-.732-.51-.737-.252-.358c-.177-.248-.35-.497-.539-.737a24.84 24.84 0 0 0-3.124-3.511 6.795 6.795 0 0 0-1.65-1.07l-.224-.11a3.668 3.668 0 0 0-.897-.328h-.198c-.497.08-2.177 1.352-2.665 1.802a8.893 8.893 0 0 0-.37 1.82c0 .277.029.543.05.804.021.26.042.51.05.757v.392c0 .268.019.535.055.8.041.175.097.345.169.51.042.113.084.227.122.336.199.694.512 1.35.926 1.941l.025.038.026.038c.26.393.585.738.96 1.023l.075.063c.155.107.297.231.422.371l.48.594.046.063c.13.198.27.396.42.581l.064.084c.232.303.476.615.686.956l.249.366c.16.223.316.45.45.682.135.232.308.514.472.77l.223.363c.223.41.424.832.602 1.263.32.943.573 1.906.758 2.884.347 1.69.435 3.422.261 5.137-.055.421-.13.842-.21 1.263l-.064.308c-.117.459-.258.911-.42 1.355-.097.287-.274 1.007-.422 1.643-.42 1.814-.492 2.05-.842 2.29-.556.375-2.18.37-2.644.3a1.898 1.898 0 0 1-.375-.09 6.41 6.41 0 0 1-.884-.39l-.265-.157-.186-.118-.054-.046-.063-.038-.257-.231a7.98 7.98 0 0 1-.421-.48 2.853 2.853 0 0 1-.278-.346 2 2 0 0 0-.135-.164 5.315 5.315 0 0 1-.871-1.137 1.659 1.659 0 0 1-.135-.273l-.06-.48a1.44 1.44 0 0 0 .03-.32c0-.169-.042-.333-.067-.497l-.059-.421c0-.114-.03-.228-.03-.308v-.661a6.995 6.995 0 0 1 .043-1.027c0-.194.037-.362.046-.627v-1.18c0-.374-.076-.71-.13-1.098-.055-.388-.16-.708-.249-1.01l-.459-.936a9.453 9.453 0 0 1-.375-.968c-.054-.139-.105-.282-.156-.421a6.558 6.558 0 0 0-.265-.674l-.227-.518-.278-.5a5.938 5.938 0 0 0-.543-.775l-.025-.034-.072-.072a3.493 3.493 0 0 0-.619-.539l-.055-.037a5.2 5.2 0 0 1-.67-.607 5.205 5.205 0 0 0-.357-.345 6.635 6.635 0 0 0-2.733-1.124h-.151a30.712 30.712 0 0 0-.842-.097 43.262 43.262 0 0 1-1.238-.152 5.843 5.843 0 0 0-1.314.038l-.316.03c-.513.1-1.078.24-1.71.42l-.277.102c-.607.2-1.196.45-1.76.75l-.063.029c-.68.34-1.33.734-1.945 1.179-.063.065-.13.126-.203.18-.139.11-.273.228-.42.342-.306.294-.65.547-1.024.75a5.196 5.196 0 0 0-.842.496c-.261.19-.522.362-.775.53l-.387.266-.282.18c-.14.094-.278.178-.421.279a3.757 3.757 0 0 0-.3.282l-.189.181c-.235.223-.863.695-1.865 1.444-.522.388-1.225.91-1.415 1.074l-1.179.707-1.136.22a6.96 6.96 0 0 1-.784 0l-.315-.026h-.114c-.35-.05-.67-.225-.901-.493a1.685 1.685 0 0 1-.24-.35 1.49 1.49 0 0 1-.135-.315c0-.025 0-.055-.034-.097a2.437 2.437 0 0 1-.088-.299c0-.034 0-.071-.03-.11l-.02-.046-.06-.231c0-.063-.029-.127-.05-.194l-.03-.08v-.084a1.115 1.115 0 0 0-.063-.215v-.101a2.787 2.787 0 0 1-.059-.547v-.08l.076-.421v-.076c.026-.093.063-.202.101-.312l.072-.214.244-.556.278-.51.156-.26a5.06 5.06 0 0 1 .337-.531 17.326 17.326 0 0 1 2.105-2.35l.215-.214c.327-.346.621-.72.88-1.12l.18-.257c.211-.262.365-.564.451-.889.143-.72-.463-2.5-.993-2.913-.475-.399-.979-.76-1.508-1.082-.126-.034-.257-.055-.383-.076a12.394 12.394 0 0 0-1.006-.093l-.485-.025a5.25 5.25 0 0 0-1.124 0 3.33 3.33 0 0 0-.724.244l-.387.156A8 8 0 0 0 3.66 10.12a7.89 7.89 0 0 0-1.574 2.28l-.093.224c-.093.214-.181.42-.278.606-.45.834-.826 1.706-1.124 2.606a13.052 13.052 0 0 0-.514 2.387c-.09.802-.101 1.61-.034 2.413.07.796.21 1.584.422 2.354.046.135.088.273.13.42.084.27.168.557.278.843l.055.147c.155.392.307.78.475 1.158a11.719 11.719 0 0 0 3.609 4.632 10.653 10.653 0 0 0 2.526 1.38l.396.119a6.2 6.2 0 0 0 .977.252l1.027.148c.064.008.127.021.19.038l.282.025a11.028 11.028 0 0 0 4.21-.653 15.98 15.98 0 0 0 1.529-.627c.252-.118.5-.244.74-.366l.603-.325 1.07-.623c.26-.155.496-.316.736-.476l.38-.252c1.03-.707 1.92-1.318 2.42-2.105.143-.232 1.626-2.375 2.164-2.737.304-.21.573-.421.843-.548l.378-.219.064-.033c.285-.177.603-.297.934-.354.238-.028.478-.028.716 0a.951.951 0 0 1 .345.11l.249.13.139.08s.77.67.871 1.078l.026.097-.03.5c-.08.247-.132.501-.156.759 0 .257-.03.488-.03.774v.421l.022.502c.044.666.12 1.329.232 1.987l.336 1.655a6.737 6.737 0 0 0 1.449 3.116c.135.16.278.315.42.471.278.29.537.596.776.918.8 1.09 1.62 2.219 2.757 2.85.28.153.538.343.767.565.122.117.254.223.396.316a9.25 9.25 0 0 0 2.791 1.263c.724.164 1.305.311 1.954.522.24.075.484.132.732.168a9.685 9.685 0 0 0 2.447 0 10.787 10.787 0 0 0 3.932-1.179.931.931 0 0 0 .135-.088c.08-.055.164-.11.249-.156.278-.17.547-.355.804-.556.31-.237.635-.455.972-.652.368-.205.713-.45 1.028-.729l.678-.619.631-.644.223-.253c.185-.193.357-.398.514-.614.18-.27.341-.552.484-.843.093-.172.253-.42.421-.72.169-.298.421-.652.607-1.006.23-.382.44-.777.627-1.183l.05-.181c.13-.459.238-.924.32-1.394a7.59 7.59 0 0 0 .076-1.035l-.004-.135z" fill="#321A3D"></path></svg> 