<?xml version="1.0" encoding="utf-8"?>
<!-- Generator: Adobe Illustrator 26.3.1, SVG Export Plug-In . SVG Version: 6.00 Build 0)  -->
<svg version="1.1" id="Layer_1" xmlns="http://www.w3.org/2000/svg" xmlns:xlink="http://www.w3.org/1999/xlink" x="0px" y="0px"
	 viewBox="0 0 187 45" style="enable-background:new 0 0 187 45;" xml:space="preserve">
<style type="text/css">
	.st0{fill:#FFBC23;}
	.st1{fill:#FFFFFF;}
</style>
<path class="st0" d="M150.2,35.2c-0.1-0.4-0.4-0.7-0.8-0.8c-0.2-0.1-0.5-0.1-0.7-0.2c-0.1-0.1-0.3-0.1-0.4-0.2c-0.1,0-0.2,0-0.3-0.1
	c-0.3-0.1-0.7,0-1,0.3c-0.4,0.3-0.8,0.8-1,1.3c-0.3,0.6-0.2,1.4,0.1,2c0.1,0.3,0.3,0.5,0.5,0.7v0c0.1,0.1,0.2,0.3,0.3,0.4
	c0.2,0.1,0.5,0.2,0.7,0.3l0.3,0.1l0.1,0c0.2-0.1,0.5-0.1,0.7-0.2c0.3-0.1,0.5-0.2,0.7-0.4l0.1-0.1c0.2-0.1,0.3-0.2,0.4-0.3l0.1-0.1
	c0.2-0.3,0.3-0.6,0.3-0.9c0-0.2,0-0.3,0-0.5v0c0-0.1,0-0.2,0-0.3C150.3,35.9,150.3,35.5,150.2,35.2L150.2,35.2z"/>
<path class="st1" d="M82.4,2.7c-0.3,2.7-0.6,5.4-1.2,8c-0.5,2.6-1.2,5.2-1.9,7.7h-5.2L71.8,8l-2.3,10.4h-5.2
	c-0.8-2.5-1.4-5.1-1.9-7.7c-0.5-2.7-0.9-5.3-1.2-8h4c0.1,1,0.2,2,0.4,3c0.1,1,0.3,2,0.5,3c0.2,1,0.4,2,0.6,2.9
	c0.2,1,0.4,1.9,0.6,2.8l2.5-11.7H74l2.5,11.7c0.2-0.9,0.4-1.8,0.6-2.8c0.2-1,0.4-2,0.6-2.9c0.4-2,0.6-4,0.8-6L82.4,2.7L82.4,2.7z
	 M93.9,17.6c-0.7,0.4-1.4,0.6-2.1,0.8c-0.8,0.2-1.6,0.3-2.4,0.3c-0.9,0-1.8-0.1-2.6-0.4c-0.7-0.2-1.4-0.6-2-1.1
	c-0.5-0.5-1-1.1-1.2-1.8c-0.3-0.8-0.4-1.6-0.4-2.5c0-0.9,0.1-1.7,0.4-2.5c0.2-0.7,0.6-1.4,1.1-1.9c0.5-0.5,1.1-1,1.8-1.2
	c0.7-0.3,1.5-0.4,2.3-0.4c0.7,0,1.4,0.1,2.1,0.4c0.6,0.2,1.1,0.6,1.6,1.1c0.4,0.5,0.8,1.1,1,1.8c0.2,0.8,0.4,1.6,0.3,2.4V13
	c0,0.2,0,0.4-0.1,0.6H87c0.1,0.3,0.2,0.6,0.3,0.9c0.1,0.3,0.3,0.5,0.6,0.7c0.3,0.2,0.6,0.3,0.9,0.4c0.4,0.1,0.8,0.1,1.2,0.1
	c1.2,0,2.3-0.3,3.3-0.9C93.2,14.9,93.9,17.6,93.9,17.6z M90.3,11.3c0-0.3,0-0.5-0.1-0.8c-0.1-0.2-0.2-0.4-0.3-0.6
	c-0.1-0.2-0.3-0.3-0.5-0.4c-0.2-0.1-0.4-0.1-0.6-0.1c-0.2,0-0.4,0-0.6,0.1c-0.2,0.1-0.4,0.2-0.5,0.4c-0.2,0.2-0.3,0.4-0.4,0.6
	c-0.1,0.3-0.2,0.5-0.2,0.8C87,11.3,90.3,11.3,90.3,11.3z M99.6,14.5c0,0.3,0.1,0.6,0.2,0.8c0.2,0.2,0.4,0.3,0.6,0.2
	c0.2,0,0.3,0,0.4-0.1c0.1,0,0.3-0.1,0.4-0.2l0.4,2.9c-0.8,0.3-1.6,0.4-2.4,0.5c-0.5,0-1-0.1-1.5-0.2c-0.4-0.1-0.8-0.4-1.1-0.7
	c-0.3-0.3-0.5-0.7-0.7-1.2c-0.2-0.5-0.2-1.1-0.2-1.7v-13l3.8-0.4L99.6,14.5L99.6,14.5z M112,17.7c-0.5,0.3-1.1,0.6-1.7,0.8
	c-0.6,0.2-1.3,0.3-2,0.3c-0.8,0-1.5-0.1-2.3-0.4c-0.7-0.3-1.3-0.7-1.8-1.2c-0.5-0.5-0.9-1.2-1.1-1.8c-0.3-0.8-0.4-1.6-0.4-2.4
	c0-0.9,0.1-1.7,0.4-2.6c0.3-0.7,0.7-1.4,1.2-1.9c0.5-0.5,1.1-0.9,1.8-1.2c0.7-0.3,1.5-0.4,2.3-0.4c0.6,0,1.1,0.1,1.7,0.2
	c0.5,0.1,1,0.4,1.4,0.6l-0.8,2.9c-0.5-0.4-1.2-0.6-1.9-0.6c-0.3,0-0.6,0.1-0.9,0.2c-0.3,0.1-0.5,0.3-0.7,0.5
	c-0.2,0.2-0.4,0.5-0.5,0.8c-0.1,0.4-0.2,0.8-0.2,1.2c0,0.4,0.1,0.8,0.2,1.2c0.1,0.3,0.3,0.6,0.5,0.9c0.2,0.2,0.5,0.4,0.8,0.5
	c0.3,0.1,0.7,0.2,1,0.2c0.4,0,0.8-0.1,1.2-0.2c0.4-0.1,0.7-0.3,1-0.6L112,17.7L112,17.7z M119.4,6.8c0.8,0,1.6,0.1,2.4,0.4
	c0.7,0.3,1.4,0.7,1.9,1.2c0.6,0.5,1,1.1,1.3,1.8c0.3,0.8,0.5,1.6,0.5,2.4c0,0.9-0.1,1.7-0.5,2.6c-0.3,0.7-0.7,1.4-1.3,1.9
	c-0.6,0.5-1.3,0.9-2,1.2c-0.8,0.3-1.7,0.4-2.5,0.4c-0.8,0-1.6-0.1-2.4-0.4c-0.7-0.3-1.4-0.6-1.9-1.2c-0.6-0.5-1-1.1-1.3-1.8
	c-0.3-0.8-0.5-1.6-0.5-2.4c0-0.9,0.1-1.7,0.5-2.6c0.3-0.7,0.8-1.4,1.3-1.9c0.6-0.5,1.3-0.9,2-1.2C117.7,6.9,118.5,6.8,119.4,6.8z
	 M119.2,10c-0.6,0-1.2,0.3-1.6,0.7c-0.2,0.3-0.4,0.5-0.5,0.9c-0.1,0.4-0.2,0.8-0.2,1.2c0,0.4,0.1,0.8,0.2,1.2
	c0.1,0.3,0.3,0.6,0.5,0.9c0.2,0.2,0.5,0.4,0.8,0.5c0.3,0.1,0.6,0.2,0.9,0.2c0.6,0,1.2-0.3,1.6-0.7c0.2-0.2,0.4-0.5,0.5-0.8
	c0.1-0.4,0.2-0.8,0.2-1.1c0-0.4-0.1-0.8-0.2-1.2c-0.1-0.3-0.3-0.6-0.5-0.9c-0.2-0.2-0.5-0.4-0.8-0.5C119.9,10,119.6,10,119.2,10
	L119.2,10z M127.7,7.1h3l0.2,1c0.4-0.4,0.8-0.7,1.3-0.9c0.5-0.2,1.1-0.3,1.7-0.3c0.3,0,0.6,0,1,0.1c0.6,0.1,1.2,0.4,1.7,0.7
	c0.2,0.2,0.5,0.4,0.7,0.6c0.2-0.2,0.4-0.4,0.7-0.6c0.2-0.2,0.5-0.3,0.8-0.5c0.3-0.1,0.6-0.2,0.9-0.3c0.4-0.1,0.7-0.1,1.1-0.1
	c0.6,0,1.1,0.1,1.7,0.3c0.5,0.2,1,0.5,1.4,0.9c0.4,0.4,0.7,0.9,0.9,1.5c0.2,0.7,0.4,1.4,0.3,2.1v6.8h-3.8v-6.4c0-0.4,0-0.7-0.1-1
	c-0.1-0.2-0.2-0.5-0.4-0.7c-0.1-0.1-0.3-0.3-0.4-0.3c-0.3-0.1-0.7-0.1-1,0c-0.3,0.1-0.5,0.2-0.8,0.4c-0.1,0.1-0.2,0.2-0.3,0.3
	c0,0.2,0,0.3,0.1,0.5v7.2h-3.8v-6.4c0-0.3,0-0.7-0.1-1c-0.1-0.2-0.2-0.5-0.4-0.7c-0.1-0.2-0.3-0.3-0.5-0.3c-0.4-0.2-0.9-0.1-1.3,0.1
	c-0.3,0.1-0.5,0.3-0.7,0.5v7.8h-3.8L127.7,7.1L127.7,7.1z M157.6,17.6c-0.7,0.4-1.4,0.6-2.1,0.8c-0.8,0.2-1.6,0.3-2.4,0.3
	c-0.9,0-1.8-0.1-2.6-0.4c-0.7-0.2-1.4-0.6-2-1.1c-0.5-0.5-1-1.1-1.2-1.8c-0.3-0.8-0.4-1.6-0.4-2.5c0-0.9,0.1-1.7,0.4-2.5
	c0.2-0.7,0.6-1.4,1.1-1.9c0.5-0.5,1.1-1,1.8-1.2c0.7-0.3,1.5-0.4,2.3-0.4c0.7,0,1.4,0.1,2.1,0.4c0.6,0.2,1.1,0.6,1.6,1.1
	c0.4,0.5,0.8,1.1,1,1.8c0.2,0.8,0.4,1.6,0.3,2.4V13c0,0.2,0,0.4-0.1,0.6h-6.7c0.1,0.3,0.2,0.6,0.3,0.9c0.1,0.3,0.4,0.5,0.6,0.7
	c0.3,0.2,0.6,0.3,0.9,0.4c0.4,0.1,0.8,0.1,1.2,0.1c1.2,0,2.3-0.3,3.3-0.9L157.6,17.6L157.6,17.6z M153.9,11.3c0-0.3,0-0.5-0.1-0.8
	c-0.1-0.2-0.2-0.4-0.3-0.6c-0.1-0.2-0.3-0.3-0.5-0.4c-0.2-0.1-0.4-0.1-0.6-0.1c-0.2,0-0.4,0-0.6,0.1c-0.2,0.1-0.4,0.2-0.5,0.4
	c-0.2,0.2-0.3,0.4-0.4,0.6c-0.1,0.3-0.2,0.5-0.2,0.8H153.9L153.9,11.3z M164,10V7.1h1.4V4.5l3.8-0.4v2.9h2.8V10h-2.8v4.1
	c0,0.4,0.1,0.8,0.3,1c0.3,0.2,0.6,0.3,0.9,0.3c0.3,0,0.5,0,0.8-0.1c0.3-0.1,0.5-0.2,0.7-0.4l0.4,3c-0.4,0.2-0.9,0.4-1.4,0.5
	c-0.5,0.1-1,0.2-1.5,0.2c-1.3,0-2.3-0.4-3-1.1c-0.7-0.7-1-1.8-1-3.2V10H164z M179.9,6.8c0.8,0,1.6,0.1,2.4,0.4
	c0.7,0.3,1.4,0.7,1.9,1.2c0.6,0.5,1,1.1,1.3,1.8c0.3,0.8,0.5,1.6,0.5,2.4c0,0.9-0.1,1.7-0.5,2.6c-0.3,0.7-0.7,1.4-1.3,1.9
	c-0.6,0.5-1.3,0.9-2,1.2c-0.8,0.3-1.7,0.4-2.5,0.4c-0.8,0-1.6-0.1-2.4-0.4c-0.7-0.3-1.4-0.6-1.9-1.2c-0.6-0.5-1-1.1-1.3-1.8
	c-0.3-0.8-0.5-1.6-0.5-2.4c0-0.9,0.1-1.7,0.5-2.6c0.3-0.7,0.8-1.4,1.3-1.9c0.6-0.5,1.3-0.9,2-1.2C178.2,6.9,179.1,6.8,179.9,6.8
	L179.9,6.8z M179.8,10c-0.6,0-1.2,0.3-1.6,0.7c-0.2,0.3-0.4,0.5-0.5,0.9c-0.1,0.4-0.2,0.8-0.2,1.2c0,0.4,0.1,0.8,0.2,1.2
	c0.1,0.3,0.3,0.6,0.5,0.9c0.2,0.2,0.5,0.4,0.8,0.5c0.3,0.1,0.6,0.2,0.9,0.2c0.6,0,1.2-0.3,1.6-0.7c0.2-0.2,0.4-0.5,0.5-0.8
	c0.1-0.4,0.2-0.8,0.2-1.1c0-0.4-0.1-0.8-0.2-1.2c-0.1-0.3-0.3-0.6-0.5-0.9c-0.2-0.2-0.5-0.4-0.8-0.5C180.4,10,180.1,10,179.8,10
	L179.8,10L179.8,10z M72.6,27.1c-0.4-0.4-0.9-0.6-1.5-0.8c-0.5-0.2-1.1-0.3-1.6-0.3c-0.5,0-1,0.1-1.5,0.3c-0.5,0.2-0.9,0.5-1.2,0.9
	c-0.4,0.4-0.7,0.9-0.8,1.5c-0.2,0.7-0.3,1.4-0.3,2.1c0,0.7,0.1,1.4,0.3,2c0.2,0.6,0.4,1.1,0.8,1.5c0.3,0.4,0.8,0.7,1.3,1
	c0.5,0.2,1.1,0.3,1.7,0.3c0.3,0,0.7,0,1-0.1c0.6-0.1,1.2-0.4,1.7-0.7c0.3-0.2,0.6-0.4,0.8-0.6l0.9,3.2c-1.4,1-3.2,1.6-5,1.6
	c-1.1,0-2.1-0.2-3.1-0.6c-0.9-0.4-1.7-0.9-2.4-1.6c-0.7-0.7-1.2-1.6-1.5-2.5c-0.4-1.1-0.6-2.2-0.5-3.3c0-0.8,0.1-1.6,0.3-2.4
	c0.2-0.7,0.4-1.4,0.8-2c0.3-0.6,0.7-1.1,1.2-1.6c0.5-0.5,1-0.9,1.5-1.2c0.6-0.3,1.2-0.6,1.8-0.7c0.7-0.2,1.4-0.2,2-0.2
	c0.8,0,1.6,0.1,2.4,0.3c0.7,0.2,1.3,0.5,1.9,1C73.5,23.9,72.6,27.1,72.6,27.1z M81.5,27c0.8,0,1.6,0.1,2.4,0.4
	c0.7,0.3,1.4,0.7,1.9,1.2c0.6,0.5,1,1.1,1.3,1.8c0.3,0.8,0.5,1.6,0.5,2.4c0,0.9-0.1,1.7-0.5,2.6c-0.3,0.7-0.7,1.4-1.3,1.9
	c-0.6,0.5-1.3,0.9-2,1.2c-0.8,0.3-1.7,0.4-2.5,0.4c-0.8,0-1.6-0.1-2.4-0.4c-0.7-0.3-1.4-0.6-1.9-1.2c-0.6-0.5-1-1.1-1.3-1.8
	c-0.3-0.8-0.5-1.6-0.5-2.4c0-0.9,0.1-1.7,0.5-2.6c0.3-0.7,0.8-1.4,1.3-1.9c0.6-0.5,1.3-0.9,2-1.2C79.8,27.1,80.7,27,81.5,27L81.5,27
	z M81.3,30.2c-0.6,0-1.2,0.3-1.6,0.7c-0.2,0.2-0.4,0.5-0.5,0.8c-0.1,0.4-0.2,0.8-0.2,1.2c0,0.4,0.1,0.8,0.2,1.2
	c0.1,0.3,0.3,0.6,0.5,0.9c0.2,0.2,0.5,0.4,0.8,0.5c0.3,0.1,0.6,0.2,0.9,0.2c0.6,0,1.2-0.3,1.6-0.7c0.2-0.2,0.4-0.5,0.5-0.8
	c0.1-0.4,0.2-0.8,0.2-1.2c0-0.4-0.1-0.8-0.2-1.2c-0.1-0.3-0.3-0.6-0.5-0.9c-0.2-0.2-0.5-0.4-0.8-0.5C82,30.2,81.7,30.2,81.3,30.2z
	 M100.5,38.7h-2.9l-0.2-1c-0.9,0.8-2,1.3-3.2,1.3c-0.6,0-1.2-0.1-1.8-0.3c-0.5-0.2-1-0.5-1.4-0.9c-0.4-0.4-0.8-1-1-1.5
	c-0.2-0.7-0.4-1.4-0.3-2.1v-6.8h3.8v6.3c0,0.4,0,0.7,0.1,1c0.1,0.3,0.2,0.5,0.4,0.7c0.1,0.2,0.3,0.3,0.5,0.4c0.5,0.2,1,0.1,1.5-0.1
	c0.3-0.1,0.6-0.3,0.8-0.6v-7.7h3.8L100.5,38.7L100.5,38.7z M103.1,27.3h3l0.2,1c0.4-0.4,0.9-0.7,1.4-0.9c0.6-0.2,1.2-0.3,1.8-0.3
	c0.6,0,1.2,0.1,1.7,0.3c0.5,0.2,1,0.5,1.4,0.9c0.4,0.4,0.8,0.9,1,1.5c0.2,0.7,0.4,1.4,0.3,2.1v6.8h-3.8v-6.4c0-0.4,0-0.7-0.1-1
	c-0.1-0.2-0.2-0.5-0.4-0.7c-0.1-0.2-0.3-0.3-0.5-0.4c-0.2-0.1-0.4-0.1-0.6-0.1c-0.3,0-0.6,0.1-0.8,0.2c-0.3,0.1-0.5,0.3-0.8,0.5v7.8
	h-3.8L103.1,27.3L103.1,27.3z M115.4,30.2v-2.9h1.4v-2.5l3.8-0.4v2.9h2.8v2.9h-2.8v4.1c0,0.4,0.1,0.8,0.3,1c0.3,0.2,0.6,0.4,0.9,0.3
	c0.3,0,0.5,0,0.8-0.1c0.3-0.1,0.5-0.2,0.7-0.4l0.4,3c-0.4,0.2-0.9,0.4-1.4,0.5c-0.5,0.1-1,0.2-1.5,0.2c-1.3,0-2.3-0.3-3-1.1
	c-0.7-0.7-1-1.8-1-3.2v-4.5L115.4,30.2L115.4,30.2z M125.7,27.3h3l0.2,1.3c0.2-0.2,0.4-0.4,0.6-0.6c0.2-0.2,0.4-0.3,0.6-0.5
	c0.4-0.3,0.9-0.4,1.4-0.4c0.2,0,0.4,0,0.6,0.1c0.2,0,0.4,0.1,0.5,0.2l-0.3,3.3c-0.3-0.1-0.6-0.2-1-0.2c-0.2,0-0.3,0-0.5,0.1
	c-0.2,0-0.3,0.1-0.5,0.2c-0.2,0.1-0.3,0.2-0.5,0.3c-0.2,0.2-0.3,0.3-0.4,0.5v7.2h-3.8L125.7,27.3L125.7,27.3z M145.5,27.3
	c-0.2,0.9-0.4,1.9-0.6,2.8c-0.2,1-0.5,2-0.8,2.9c-0.3,1-0.6,1.9-1,2.9c-0.3,0.9-0.7,1.7-1.1,2.6c-0.4,0.9-0.8,1.7-1.4,2.4
	c-0.5,0.7-1,1.3-1.6,1.8c-0.5,0.5-1.2,0.8-1.8,1.1c-0.6,0.2-1.3,0.4-2,0.4c-0.4,0-0.9-0.1-1.3-0.2c-0.4-0.1-0.7-0.2-1.1-0.4l0.4-3.1
	c0.3,0.2,0.5,0.3,0.8,0.4c0.3,0.1,0.6,0.1,0.9,0.1c0.5,0,1.1-0.2,1.5-0.5c0.2-0.2,0.4-0.4,0.6-0.6c0.2-0.2,0.4-0.5,0.5-0.8
	c-0.5-1.1-0.9-2.2-1.4-3.4c-0.4-1-0.8-2-1.1-3c-0.3-1-0.6-1.9-0.8-2.8c-0.2-0.9-0.5-1.8-0.7-2.7h3.9c0.1,0.6,0.3,1.3,0.4,1.9
	c0.2,0.7,0.3,1.3,0.5,2c0.2,0.6,0.4,1.3,0.6,2c0.2,0.7,0.4,1.3,0.7,1.9c0.2-0.7,0.4-1.4,0.6-2c0.2-0.7,0.4-1.3,0.5-2
	c0.2-0.6,0.3-1.3,0.4-1.9c0.1-0.6,0.3-1.3,0.4-1.9L145.5,27.3L145.5,27.3z"/>
<path class="st0" d="M33.6,4.6c-0.9-2.2-2.2-2.8-3.1-2.9c-0.9-0.2-1.7-0.5-2.6-0.8c-0.6-0.2-1.1-0.4-1.7-0.6
	c-0.4-0.1-0.8-0.2-1.2-0.2c-1.3-0.2-2.7,0.1-3.7,1c-1.7,1.2-3,2.9-3.8,4.8c-1,2.8-0.9,5.3,0.4,7.6c0.5,1,1.1,1.9,1.7,2.8l0.1,0.1
	c0.3,0.5,0.7,1,1.2,1.3c0.9,0.5,1.8,0.8,2.8,1.2l1,0.4l0.5-0.1c0.9-0.2,1.9-0.5,2.8-0.8c1-0.4,2-0.9,2.9-1.4l0.4-0.3
	c0.6-0.4,1.5-0.9,1.7-1.3l0.3-0.5c0.8-1.5,1.3-2.4,1.1-3.5c-0.1-0.6-0.1-1.2,0.1-1.8c0,0,0-0.1,0-0.1l-0.1-1
	C34.3,7.1,34,5.8,33.6,4.6L33.6,4.6z"/>
<path class="st1" d="M55.4,29.1L55.4,29.1c0.1-0.5,0.2-1,0.2-1.4l0.1-1.3c0-0.2,0.1-0.4,0.1-0.6c0-0.1,0-0.2,0-0.3
	c0-0.2,0-0.4,0-0.6c-0.1-0.5-0.1-0.9-0.1-1.4v-0.5c0-0.4,0-0.8-0.1-1.2c0-0.2,0-0.3,0-0.5c0-0.3,0-0.6-0.1-0.9
	c-0.1-0.6-0.3-1.2-0.5-1.8c-0.1-0.2-0.1-0.5-0.2-0.7c-0.1-0.5-0.3-0.9-0.5-1.3c-0.2-0.4-0.5-0.9-0.6-1.4l-0.2-0.4
	c-0.2-0.5-0.4-0.9-0.6-1.4L53,13.2c-0.3-0.6-0.6-1.2-0.9-1.8c-0.1-0.2-0.3-0.4-0.4-0.6c-0.2-0.3-0.4-0.6-0.6-0.9
	c-0.2-0.3-0.3-0.6-0.5-0.9c-0.1-0.2-0.2-0.4-0.3-0.6l-0.4-0.7l-0.5-0.7L49,6.5c-0.2-0.2-0.3-0.5-0.5-0.7c-0.9-1.3-2-2.4-3.1-3.5
	c-0.5-0.4-1.1-0.8-1.7-1.1l-0.2-0.1c-0.3-0.1-0.6-0.3-0.9-0.3h-0.2c-0.5,0.1-2.2,1.4-2.7,1.8c-0.2,0.6-0.3,1.2-0.4,1.8
	c0,0.3,0,0.5,0,0.8c0,0.3,0,0.5,0,0.8v0.4c0,0.3,0,0.5,0.1,0.8c0,0.2,0.1,0.3,0.2,0.5c0,0.1,0.1,0.2,0.1,0.3
	c0.2,0.7,0.5,1.3,0.9,1.9l0,0l0,0c0.3,0.4,0.6,0.7,1,1l0.1,0.1c0.2,0.1,0.3,0.2,0.4,0.4l0.5,0.6l0,0.1c0.1,0.2,0.3,0.4,0.4,0.6
	l0.1,0.1c0.2,0.3,0.5,0.6,0.7,1l0.2,0.4c0.2,0.2,0.3,0.4,0.5,0.7c0.1,0.2,0.3,0.5,0.5,0.8l0.2,0.4c0.2,0.4,0.4,0.8,0.6,1.3
	c0.3,0.9,0.6,1.9,0.8,2.9c0.3,1.7,0.4,3.4,0.3,5.1c-0.1,0.4-0.1,0.8-0.2,1.3l-0.1,0.3c-0.1,0.5-0.3,0.9-0.4,1.4
	c-0.1,0.3-0.3,1-0.4,1.6c-0.4,1.8-0.5,2-0.8,2.3c-0.6,0.4-2.2,0.4-2.6,0.3c-0.1,0-0.3,0-0.4-0.1c-0.3-0.1-0.6-0.2-0.9-0.4l-0.3-0.2
	l-0.2-0.1l-0.1,0l-0.1,0l-0.3-0.2c-0.1-0.2-0.3-0.3-0.4-0.5c-0.1-0.1-0.2-0.2-0.3-0.3c0-0.1-0.1-0.1-0.1-0.2
	c-0.3-0.3-0.6-0.7-0.9-1.1c-0.1-0.1-0.1-0.2-0.1-0.3l-0.1-0.5c0-0.1,0-0.2,0-0.3c0-0.2,0-0.3-0.1-0.5l-0.1-0.4c0-0.1,0-0.2,0-0.3
	v-0.7c0-0.3,0-0.7,0-1c0-0.2,0-0.4,0-0.6v-1.2c0-0.4-0.1-0.7-0.1-1.1c-0.1-0.4-0.2-0.7-0.2-1l-0.5-0.9c-0.1-0.3-0.3-0.6-0.4-1
	C37,19.2,37,19.1,36.9,19c-0.1-0.2-0.2-0.5-0.3-0.7l-0.2-0.5l-0.3-0.5c-0.2-0.3-0.3-0.5-0.5-0.8l0,0l-0.1-0.1
	c-0.2-0.2-0.4-0.4-0.6-0.5l-0.1,0c-0.2-0.2-0.5-0.4-0.7-0.6c-0.1-0.1-0.2-0.2-0.4-0.3c-0.8-0.6-1.7-1-2.7-1.1H31
	c-0.3,0-0.6-0.1-0.8-0.1c-0.4,0-0.8-0.1-1.2-0.2c-0.4,0-0.9,0-1.3,0l-0.3,0c-0.5,0.1-1.1,0.2-1.7,0.4l-0.3,0.1
	c-0.6,0.2-1.2,0.4-1.8,0.8l-0.1,0c-0.7,0.3-1.3,0.7-1.9,1.2c-0.1,0.1-0.1,0.1-0.2,0.2c-0.1,0.1-0.3,0.2-0.4,0.3
	c-0.3,0.3-0.6,0.5-1,0.8c-0.3,0.1-0.6,0.3-0.8,0.5c-0.3,0.2-0.5,0.4-0.8,0.5l-0.4,0.3l-0.3,0.2c-0.1,0.1-0.3,0.2-0.4,0.3
	c-0.1,0.1-0.2,0.2-0.3,0.3l-0.2,0.2c-0.2,0.2-0.9,0.7-1.9,1.4c-0.5,0.4-1.2,0.9-1.4,1.1l-1.2,0.7L11,23c-0.3,0-0.5,0-0.8,0l-0.3,0
	H9.8c-0.4,0-0.7-0.2-0.9-0.5c-0.1-0.1-0.2-0.2-0.2-0.4c-0.1-0.1-0.1-0.2-0.1-0.3c0,0,0-0.1,0-0.1c0-0.1-0.1-0.2-0.1-0.3
	c0,0,0-0.1,0-0.1l0,0L8.3,21c0-0.1,0-0.1-0.1-0.2l0-0.1v-0.1c0-0.1,0-0.1-0.1-0.2v-0.1c0-0.2-0.1-0.4-0.1-0.5v-0.1l0.1-0.4v-0.1
	c0-0.1,0.1-0.2,0.1-0.3l0.1-0.2l0.2-0.6l0.3-0.5l0.2-0.3c0.1-0.2,0.2-0.4,0.3-0.5c0.6-0.8,1.3-1.6,2.1-2.4l0.2-0.2
	c0.3-0.3,0.6-0.7,0.9-1.1l0.2-0.3c0.2-0.3,0.4-0.6,0.5-0.9c0.1-0.7-0.5-2.5-1-2.9c-0.5-0.4-1-0.8-1.5-1.1c-0.1,0-0.3-0.1-0.4-0.1
	c-0.3,0-0.7-0.1-1-0.1l-0.5,0c-0.4,0-0.8,0-1.1,0C7.5,7.8,7.2,7.9,7,8L6.6,8.2c-1.1,0.4-2.1,1.1-2.9,1.9c-0.7,0.7-1.2,1.4-1.6,2.3
	L2,12.6c-0.1,0.2-0.2,0.4-0.3,0.6c-0.5,0.8-0.8,1.7-1.1,2.6c-0.2,0.8-0.4,1.6-0.5,2.4C0,19,0,19.8,0,20.6c0.1,0.8,0.2,1.6,0.4,2.4
	c0,0.1,0.1,0.3,0.1,0.4c0.1,0.3,0.2,0.6,0.3,0.8l0.1,0.1c0.2,0.4,0.3,0.8,0.5,1.2c0.8,1.8,2,3.4,3.6,4.6c0.8,0.6,1.6,1,2.5,1.4
	l0.4,0.1c0.3,0.1,0.6,0.2,1,0.3l1,0.1c0.1,0,0.1,0,0.2,0l0.3,0c1.4,0.1,2.9-0.2,4.2-0.7c0.5-0.2,1-0.4,1.5-0.6
	c0.3-0.1,0.5-0.2,0.7-0.4l0.6-0.3l1.1-0.6c0.3-0.2,0.5-0.3,0.7-0.5l0.4-0.3c1-0.7,1.9-1.3,2.4-2.1c0.1-0.2,1.6-2.4,2.2-2.7
	c0.3-0.2,0.6-0.4,0.8-0.5l0.4-0.2l0.1,0c0.3-0.2,0.6-0.3,0.9-0.4c0.2,0,0.5,0,0.7,0c0.1,0,0.2,0.1,0.3,0.1l0.2,0.1l0.1,0.1
	c0,0,0.8,0.7,0.9,1.1l0,0.1l0,0.5c-0.1,0.2-0.1,0.5-0.2,0.8c0,0.3,0,0.5,0,0.8v0.4l0,0.5c0,0.7,0.1,1.3,0.2,2l0.3,1.7
	c0.2,1.1,0.7,2.2,1.4,3.1c0.1,0.2,0.3,0.3,0.4,0.5c0.3,0.3,0.5,0.6,0.8,0.9c0.8,1.1,1.6,2.2,2.8,2.8c0.3,0.2,0.5,0.3,0.8,0.6
	c0.1,0.1,0.3,0.2,0.4,0.3c0.9,0.6,1.8,1,2.8,1.3c0.7,0.2,1.3,0.3,2,0.5c0.2,0.1,0.5,0.1,0.7,0.2c0.8,0.1,1.6,0.1,2.4,0
	c1.4-0.1,2.7-0.5,3.9-1.2c0,0,0.1-0.1,0.1-0.1c0.1-0.1,0.2-0.1,0.2-0.2c0.3-0.2,0.5-0.4,0.8-0.6c0.3-0.2,0.6-0.5,1-0.7
	c0.4-0.2,0.7-0.5,1-0.7l0.7-0.6l0.6-0.6l0.2-0.3c0.2-0.2,0.4-0.4,0.5-0.6c0.2-0.3,0.3-0.6,0.5-0.8c0.1-0.2,0.3-0.4,0.4-0.7
	c0.2-0.3,0.4-0.7,0.6-1c0.2-0.4,0.4-0.8,0.6-1.2l0-0.2c0.1-0.5,0.2-0.9,0.3-1.4c0-0.3,0.1-0.7,0.1-1L55.4,29.1L55.4,29.1z"/>
</svg>
